HIERARCHY
ROOT RootJoint
{
    OFFSET   0.000000   0.000000   0.000000
    CHANNELS 6 Xposition Yposition Zposition Xrotation Yrotation Zrotation
    JOINT pelvis_lowerback
    {
        OFFSET   0.000000   0.093605   0.000000
        CHANNELS 3 Xrotation Yrotation Zrotation
        JOINT lowerback_torso
        {
            OFFSET   0.000000   0.100000   0.000000
            CHANNELS 3 Xrotation Yrotation Zrotation
            JOINT torso_head
            {
                OFFSET   0.000000   0.282350   0.000000
                CHANNELS 3 Xrotation Yrotation Zrotation
                End Site
                {
                    OFFSET   0.000000   0.192650   0.000000
                }
            }
            JOINT rTorso_Clavicle
            {
                OFFSET  -0.001000   0.157500   0.000000
                CHANNELS 3 Xrotation Yrotation Zrotation
                JOINT rShoulder
                {
                    OFFSET  -0.117647   0.000000   0.000000
                    CHANNELS 3 Xrotation Yrotation Zrotation
                    JOINT rElbow
                    {
                        OFFSET  -0.245000   0.000000   0.000000
                        CHANNELS 3 Xrotation Yrotation Zrotation
                        JOINT rWrist
                        {
                            OFFSET  -0.240000   0.000000   0.000000
                            CHANNELS 3 Xrotation Yrotation Zrotation
                            End Site
                            {
                                OFFSET  -0.116353  -0.002500   0.000000
                            }
                        }
                    }
                }
            }
            JOINT lTorso_Clavicle
            {
                OFFSET   0.001000   0.157500   0.000000
                CHANNELS 3 Xrotation Yrotation Zrotation
                JOINT lShoulder
                {
                    OFFSET   0.117647   0.000000   0.000000
                    CHANNELS 3 Xrotation Yrotation Zrotation
                    JOINT lElbow
                    {
                        OFFSET   0.245000   0.000000   0.000000
                        CHANNELS 3 Xrotation Yrotation Zrotation
                        JOINT lWrist
                        {
                            OFFSET   0.240000   0.000000   0.000000
                            CHANNELS 3 Xrotation Yrotation Zrotation
                            End Site
                            {
                                OFFSET   0.116353  -0.002500   0.000000
                            }
                        }
                    }
                }
            }
        }
    }
    JOINT rHip
    {
        OFFSET  -0.100000  -0.051395   0.000000
        CHANNELS 3 Xrotation Yrotation Zrotation
        JOINT rKnee
        {
            OFFSET   0.000000  -0.410000   0.000000
            CHANNELS 3 Xrotation Yrotation Zrotation
            JOINT rAnkle
            {
                OFFSET   0.000000  -0.390000   0.000000
                CHANNELS 3 Xrotation Yrotation Zrotation
                JOINT rToeJoint
                {
                    OFFSET   0.000000  -0.050000   0.130000
                    CHANNELS 3 Xrotation Yrotation Zrotation
                    End Site
                    {
                        OFFSET  -0.010000   0.002000   0.060000
                    }
                }
            }
        }
    }
    JOINT lHip
    {
        OFFSET   0.100000  -0.051395   0.000000
        CHANNELS 3 Xrotation Yrotation Zrotation
        JOINT lKnee
        {
            OFFSET   0.000000  -0.410000   0.000000
            CHANNELS 3 Xrotation Yrotation Zrotation
            JOINT lAnkle
            {
                OFFSET   0.000000  -0.390000   0.000000
                CHANNELS 3 Xrotation Yrotation Zrotation
                JOINT lToeJoint
                {
                    OFFSET   0.000000  -0.050000   0.130000
                    CHANNELS 3 Xrotation Yrotation Zrotation
                    End Site
                    {
                        OFFSET   0.010000   0.002000   0.060000
                    }
                }
            }
        }
    }
}
MOTION
Frames: 17
Frame Time:   0.008333
 -2.364975   0.909188   4.083684  -2.904081   2.914699  -0.365502   7.950072  -0.654284  -0.952335   8.384620  -3.192238   1.960622   1.083431  -1.328972  -0.289990   2.273326   4.925739   9.530068  14.639317  15.966938  44.426260   0.000014  23.281215  -0.000019  14.344004   3.570376   5.589484   2.454651  -5.171817  -8.155560  15.999727 -17.517201 -44.406530   0.000012 -24.100800  -0.000012   9.729252  -3.277380  -5.356775   8.532173  -0.379548  -1.778818   7.550151  -0.000151   0.000711 -13.599792  -1.358616   1.057675   0.845329   0.000039   0.000830  10.013977  -1.265519   2.728973   6.497202  -0.000326   0.000697 -13.526272   2.985702   1.393316  -0.150612  -0.000002  -0.000001
 -2.365475   0.908961   4.085499  -2.917646   3.075388  -0.304297   8.146429  -0.659160  -1.032250   8.365634  -3.261421   1.982751   1.042831  -1.394999  -0.255054   2.231982   4.945484   9.513667  14.659261  15.972328  44.484192  -0.000083  23.168437   0.000166  14.287693   3.616581   5.556571   2.373551  -5.146841  -8.149026  15.974741 -17.458453 -44.401114   0.000007 -24.094012  -0.000003   9.730279  -3.290850  -5.293693   8.682217  -0.286006  -1.742229   7.613690  -0.000140   0.000720 -13.878942  -1.286753   0.913221   0.889362   0.000050   0.000790   9.550061  -1.262025   2.704016   7.657205  -0.000185   0.002540 -13.910888   3.022619   1.313321  -0.605077  -0.000083  -0.000875
 -2.366001   0.908760   4.087421  -2.969858   3.161358  -0.226132   8.350034  -0.622639  -1.127553   8.377667  -3.303169   1.985610   1.011267  -1.455844  -0.225012   2.198569   4.965697   9.499971  14.681595  15.976424  44.542828  -0.000162  23.058766   0.000315  14.237315   3.633397   5.553344   2.303630  -5.113261  -8.143794  15.955655 -17.397905 -44.396419   0.000001 -24.085499   0.000006   9.732523  -3.297891  -5.217438   8.874420  -0.182238  -1.734683   7.665895  -0.000130   0.000673 -14.149160  -1.211862   0.768526   0.925699   0.000059   0.000718   9.086373  -1.249751   2.657910   8.918878  -0.000163   0.003526 -14.245450   3.055673   1.242801  -1.235958  -0.000090  -0.001546
 -2.366565   0.908539   4.089458  -3.031026   3.176337  -0.155559   8.539019  -0.566036  -1.219558   8.398703  -3.323073   1.979637   0.984201  -1.511639  -0.198941   2.170017   4.983497   9.484847  14.704690  15.978961  44.597557  -0.000210  22.955380   0.000393  14.190725   3.641353   5.563646   2.252124  -5.067362  -8.141329  15.947580 -17.333400 -44.397916  -0.000007 -24.073881   0.000014   9.735554  -3.291767  -5.155064   9.071522  -0.083596  -1.733710   7.718172  -0.000125   0.000600 -14.402289  -1.140282   0.632145   0.957837   0.000064   0.000628   8.656734  -1.240294   2.619091  10.160037  -0.000341   0.003496 -14.531400   3.081096   1.181355  -1.949342  -0.000016  -0.001666
 -2.367165   0.908287   4.091595  -3.091086   3.134207  -0.099261   8.711256  -0.500961  -1.303992   8.420677  -3.329364   1.970984   0.958855  -1.563400  -0.175039   2.144172   4.999242   9.468044  14.727282  15.980252  44.647126  -0.000232  22.858411   0.000411  14.146645   3.645585   5.576061   2.215794  -5.013131  -8.141524  15.948510 -17.266505 -44.404452  -0.000015 -24.059480   0.000018   9.739297  -3.271010  -5.110684   9.262664   0.007407  -1.730741   7.772830  -0.000125   0.000513 -14.636957  -1.073226   0.505632   0.987014   0.000067   0.000533   8.263190  -1.234140   2.594667  11.353053  -0.000668   0.002814 -14.778222   3.100439   1.127788  -2.706183   0.000111  -0.001323
 -2.367797   0.907999   4.093820  -3.146113   3.059341  -0.055942   8.867545  -0.437946  -1.380307   8.441085  -3.331007   1.962733   0.934574  -1.611863  -0.152469   2.121128   5.012180   9.450156  14.749541  15.980002  44.691991  -0.000238  22.767400   0.000390  14.104578   3.646928   5.586698   2.189187  -4.955856  -8.143496  15.954668 -17.199973 -44.413936  -0.000024 -24.043632   0.000019   9.860043  -3.250542  -5.078037   9.447090   0.089840  -1.722429   7.829045  -0.000128   0.000424 -14.854216  -1.011036   0.389048   1.013659   0.000066   0.000443   7.901250  -1.220297   2.582167  12.492086  -0.001012   0.002011 -14.992310   3.126296   1.079363  -3.485995   0.000255  -0.000897
 -2.368455   0.907674   4.096125  -3.194055   2.969211  -0.023021   9.009050  -0.381886  -1.449261   8.459007  -3.333388   1.956109   0.911238  -1.657365  -0.130943   2.101357   5.021829   9.431985  14.771871  15.978013  44.733057  -0.000234  22.681785   0.000346  14.064385   3.645140   5.595602   2.168037  -4.899519  -8.146371  15.963156 -17.136118 -44.424586  -0.000031 -24.027622   0.000016   9.840994  -3.211643  -5.058494   9.624815   0.164533  -1.707633   7.886773  -0.000132   0.000341 -15.055250  -0.953392   0.281664   1.038024   0.000064   0.000364   7.567367  -1.196891   2.579654  13.574890  -0.001309   0.001317 -15.179018   3.160497   1.036197  -4.274704   0.000414  -0.000551
 -2.369063   0.907377   4.098022  -3.223589   3.201872   0.007673   9.224254  -0.401768  -1.479374   8.461811  -3.405597   1.999884   0.813769  -1.695897  -0.099599   2.109765   5.018373   9.373412  14.791163  15.950296  44.782656  -0.000346  22.495718   0.000643  13.986993   3.687776   5.594544   2.075822  -4.901955  -8.257276  15.881750 -17.030496 -44.340551  -0.000040 -23.900171   0.000240   9.818126  -3.263574  -5.035865   9.871606   0.176380  -1.611972   7.817424  -0.000076   0.000114 -15.309247  -0.857619   0.098372   1.017458   0.000038   0.000231   6.337620  -1.150707   2.584037  16.416667   0.000438   0.009387 -15.475606   3.125188   0.910118  -6.253096   0.000554  -0.005245
 -2.369613   0.907004   4.100159  -3.332200   3.389185   0.033481   9.460162  -0.363275  -1.508698   8.510706  -3.445858   2.036314   0.729850  -1.727018  -0.067828   2.134151   5.007739   9.306874  14.824802  15.911849  44.824149  -0.000411  22.311001   0.000937  13.920375   3.671314   5.630054   1.992833  -4.895900  -8.366215  15.808442 -16.925641 -44.258843  -0.000056 -23.775634   0.000458   9.802936  -3.286126  -4.985020  10.212665   0.207396  -1.518297   7.745202  -0.000029  -0.000056 -15.556774  -0.758787  -0.081480   0.987097   0.000011   0.000103   5.105891  -1.070235   2.586581  19.326931   0.002657   0.015662 -15.705487   3.120049   0.807456  -7.829116   0.001015  -0.008349
 -2.370104   0.906475   4.102631  -3.466651   3.475112   0.008910   9.662480  -0.280980  -1.512433   8.570445  -3.446778   2.071856   0.655928  -1.753327  -0.038155   2.166183   4.990661   9.232399  14.865630  15.867794  44.856451  -0.000391  22.133649   0.001074  13.861705   3.625040   5.683392   1.941920  -4.860802  -8.472894  15.758576 -16.812032 -44.193701  -0.000082 -23.652379   0.000631   9.792744  -3.280487  -4.952308  10.570619   0.239703  -1.400201   7.703231  -0.000003  -0.000091 -15.781591  -0.664504  -0.248790   0.956557  -0.000013   0.000029   3.993185  -1.006486   2.616366  22.210134   0.004374   0.017293 -15.744823   3.096044   0.728216  -7.254088   0.000631  -0.005897
 -2.370544   0.905907   4.105324  -3.603368   3.542520   0.000985   9.840789  -0.202541  -1.545193   8.624646  -3.441103   2.096955   0.584308  -1.778267  -0.009749   2.200567   4.969857   9.169414  14.906853  15.823625  44.889184  -0.000338  21.965678   0.001117  13.806921   3.563590   5.735784   1.908650  -4.813993  -8.571967  15.724193 -16.694646 -44.131995  -0.000112 -23.530437   0.000765   9.787446  -3.242846  -4.932308  10.933847   0.263848  -1.307749   7.677031   0.000009  -0.000096 -15.991126  -0.577329  -0.404308   0.929616  -0.000030  -0.000016   2.951554  -0.926107   2.657413  24.887034   0.005263   0.018309 -15.906708   3.118441   0.651912  -8.170912   0.000917  -0.006366
 -2.370906   0.905278   4.108222  -3.734629   3.575337  -0.010157   9.993587  -0.117821  -1.581076   8.670097  -3.426747   2.111825   0.515590  -1.801400   0.015076   2.235035   4.947498   9.108012  14.947490  15.780313  44.919006  -0.000258  21.808053   0.001087  13.755074   3.498874   5.787677   1.888739  -4.759191  -8.665963  15.700202 -16.578250 -44.078466  -0.000140 -23.412926   0.000853   9.785146  -3.187584  -4.926324  11.291229   0.287063  -1.226552   7.666169   0.000012  -0.000083 -16.184895  -0.494945  -0.550022   0.905211  -0.000042  -0.000040   1.987110  -0.862861   2.705638  27.412334   0.005507   0.017747 -16.019274   3.122762   0.580732  -8.562594   0.000920  -0.005556
 -2.371188   0.904581   4.111309  -3.855023   3.579710  -0.030849  10.122226  -0.031332  -1.615069   8.705245  -3.406569   2.121596   0.449569  -1.822911   0.037787   2.267685   4.925142   9.047191  14.986380  15.738524  44.944583  -0.000164  21.660564   0.001005  13.705717   3.434108   5.834858   1.878079  -4.700167  -8.755600  15.683371 -16.465037 -44.032102  -0.000163 -23.300830   0.000897   9.784809  -3.122959  -4.931683  11.638421   0.308046  -1.149755   7.667588   0.000009  -0.000066 -16.363727  -0.417556  -0.686009   0.883102  -0.000050  -0.000050   1.096865  -0.810490   2.762642  29.782873   0.005337   0.016295 -16.092133   3.122558   0.516937  -8.565469   0.000750  -0.004445
 -2.371404   0.903934   4.114209  -3.867495   3.819978  -0.084398  10.268058   0.029440  -1.575245   8.660954  -3.461498   2.153596   0.273329  -1.832692   0.033783   2.351057   4.901016   8.930244  14.975874  15.675924  45.018102  -0.000123  21.520941   0.001074  13.625840   3.344337   5.898347   1.812367  -4.633357  -8.952610  15.582053 -16.278873 -43.951573  -0.000197 -23.039335   0.001784   9.775181  -3.190681  -4.889957  11.997798   0.185696  -0.987739   7.491077   0.000079  -0.000230 -16.737227  -0.319097  -0.908433   0.812266  -0.000130  -0.000158  -0.210560  -0.820674   2.864025  32.519095   0.007331   0.019587 -16.231778   3.099792   0.426213  -7.958416   0.000528  -0.002133
 -2.371486   0.902558   4.116977  -3.838137   4.019291  -0.020929  10.413508   0.141549  -1.629588   8.596078  -3.487089   2.130009   0.100172  -1.839128   0.026297   2.431506   4.878427   8.782059  14.967678  15.618416  45.088779  -0.000048  21.396191   0.001186  13.546328   3.281629   5.996543   1.758146  -4.556718  -9.094853  15.495906 -16.092649 -43.863611  -0.000210 -22.791707   0.002510   9.768621  -3.242338  -4.833678  12.393526   0.100177  -1.014563   7.173688   0.000008  -0.000541 -17.168715  -0.205472  -1.151504   0.707735  -0.000311  -0.000340  -1.602375  -0.805035   2.836318  35.111350   0.009114   0.021391 -16.361574   3.079323   0.340627  -7.408521   0.000482  -0.000444
 -2.371604   0.901853   4.120060  -3.899668   4.298087  -0.133658  10.622046   0.249670  -1.532893   8.608207  -3.495746   2.168175  -0.057450  -1.844294   0.022992   2.491948   4.875073   8.676504  14.955817  15.562572  45.127973  -0.000027  21.268347   0.001367  13.477494   3.158102   6.033862   1.704838  -4.495294  -9.304991  15.410047 -15.922914 -43.795549  -0.000448 -22.550664   0.003033   9.770139  -3.229470  -4.741643  12.806423  -0.015042  -0.782718   7.017271   0.000062  -0.000628 -17.475511  -0.125229  -1.330204   0.638843  -0.000309  -0.000393  -2.889184  -0.825137   2.996878  37.485554   0.010971   0.023179 -16.480423   3.061302   0.261466  -6.883733   0.000526   0.001111
 -2.371591   0.901162   4.123322  -3.957172   4.558981  -0.185104  10.818008   0.376879  -1.506795   8.625245  -3.483763   2.183923  -0.198452  -1.848441   0.021969   2.550188   4.871579   8.574859  14.941619  15.517314  45.181966  -0.000001  21.155318   0.001493  13.410016   3.062197   6.095477   1.672512  -4.420583  -9.483886  15.341568 -15.757027 -43.740559  -0.000681 -22.325537   0.003409   9.770423  -3.219154  -4.694185  13.232219  -0.113494  -0.622072   6.852838   0.000093  -0.000720 -17.798058  -0.039899  -1.511494   0.563599  -0.000319  -0.000458  -4.169197  -0.836158   3.067055  39.683282   0.012745   0.023573 -16.593363   3.045028   0.187457  -6.410212   0.000725   0.002169
